<?xml version="1.0" encoding="iso-8859-1"?>
<!-- Generator: Adobe Illustrator 19.0.0, SVG Export Plug-In . SVG Version: 6.00 Build 0)  -->
<svg version="1.1" id="Capa_1" xmlns="http://www.w3.org/2000/svg" xmlns:xlink="http://www.w3.org/1999/xlink" x="0px" y="0px"
	 viewBox="0 0 512 512" style="enable-background:new 0 0 512 512;" xml:space="preserve">
<g>
	<g>
		<path d="M196,321.729V301h30v-90H46v90h30v20.729l-60,30V512h240V351.729L196,321.729z M76,241h120v30H76V241z M226,482H46v-61
			h180V482z M226,391H46v-20.729l60-30V301h60v39.271l60,30V391z"/>
	</g>
</g>
<g>
	<g>
		<path d="M391,0c-57.897,0-105,47.103-105,105v247.213l90,90V512h30v-69.787l90-90V105C496,47.103,448.897,0,391,0z M376,399.787
			l-60-60v-77.573l60,60V399.787z M376,279.787l-60-60v-78.289l60,60.667V279.787z M376,90v69.502l-59.746-60.409
			C319.28,60.491,351.635,30,391,30s71.72,30.491,74.746,69.093L406,159.502V90H376z M466,339.787l-60,60v-77.573l60-60V339.787z
			 M466,219.787l-60,60v-77.622l60-60.667V219.787z"/>
	</g>
</g>
<g>
</g>
<g>
</g>
<g>
</g>
<g>
</g>
<g>
</g>
<g>
</g>
<g>
</g>
<g>
</g>
<g>
</g>
<g>
</g>
<g>
</g>
<g>
</g>
<g>
</g>
<g>
</g>
<g>
</g>
</svg>
